<?xml version="1.0" standalone="no"?>
<!DOCTYPE svg PUBLIC "-//W3C//DTD SVG 20010904//EN"
 "http://www.w3.org/TR/2001/REC-SVG-20010904/DTD/svg10.dtd">
<svg version="1.0" xmlns="http://www.w3.org/2000/svg"
 width="320.000000pt" height="320.000000pt" viewBox="0 0 320.000000 320.000000"
 preserveAspectRatio="xMidYMid meet">
<metadata>
Created by potrace 1.14, written by Peter Selinger 2001-2017
</metadata>
<g transform="translate(0.000000,320.000000) scale(0.100000,-0.100000)"
fill="#000000" stroke="none">
<path d="M1469 3045 c-2 -1 -29 -6 -59 -9 -70 -8 -105 -14 -155 -28 -22 -5
-42 -10 -45 -11 -22 -2 -171 -61 -240 -95 -73 -35 -204 -114 -220 -132 -3 -3
-26 -22 -52 -43 -53 -43 -145 -133 -196 -193 -59 -69 -189 -277 -197 -314 0
-3 -6 -14 -12 -26 -14 -25 -73 -198 -80 -234 -2 -14 -8 -44 -14 -68 -22 -99
-29 -291 -16 -422 8 -80 44 -245 59 -274 6 -11 10 -22 9 -24 -3 -3 1 -15 25
-77 4 -11 8 -22 8 -25 1 -3 16 -33 34 -67 17 -35 29 -63 26 -63 -2 0 4 -10 16
-22 11 -12 20 -28 20 -35 0 -7 4 -13 9 -13 5 0 14 -13 20 -28 7 -15 23 -40 36
-55 14 -14 25 -29 25 -32 0 -13 204 -225 216 -225 3 0 19 -13 37 -30 18 -16
38 -30 45 -30 7 0 10 -4 7 -10 -3 -5 -1 -10 5 -10 7 0 31 -13 54 -28 23 -16
56 -35 74 -43 18 -7 32 -17 32 -21 0 -5 9 -8 20 -8 11 0 20 -4 20 -10 0 -5 8
-10 18 -10 9 0 26 -7 36 -15 11 -8 28 -15 38 -15 10 0 18 -4 18 -10 0 -5 -8
-7 -17 -4 -15 5 -15 4 -3 -4 10 -8 19 -7 29 1 12 10 14 9 8 -7 -6 -16 -5 -17
8 -6 8 7 15 8 15 2 0 -16 -30 -23 -50 -12 -13 7 -21 7 -25 -1 -4 -6 -14 -8
-22 -5 -12 5 -14 1 -9 -21 6 -26 5 -27 -8 -10 -8 11 -13 24 -12 30 2 7 1 9 -1
5 -3 -5 -13 -3 -23 2 -21 11 -38 -4 -19 -16 8 -4 7 -9 -2 -15 -7 -4 -10 -11
-6 -16 9 -9 28 17 21 29 -3 4 0 8 5 8 16 0 13 -26 -4 -40 -16 -13 -36 -5 -34
13 4 34 -2 41 -17 19 -8 -12 -20 -22 -26 -22 -6 0 -6 6 2 15 10 13 11 18 1 28
-10 9 -11 8 -5 -6 4 -10 2 -17 -4 -15 -11 3 -13 -9 -4 -31 3 -7 -1 -17 -9 -22
-21 -13 -29 -11 -23 6 4 8 11 12 18 8 6 -3 3 3 -8 15 -16 19 -36 22 -36 6 0
-3 4 -3 9 1 5 3 12 1 15 -4 3 -5 -6 -12 -21 -16 l-26 -6 29 -18 c16 -10 30
-14 32 -9 2 4 8 8 14 8 6 0 8 -7 4 -15 -3 -8 -1 -15 5 -15 6 0 7 -5 3 -12 -4
-7 -3 -8 4 -4 6 4 8 14 5 24 -5 12 1 11 20 -7 15 -14 27 -19 27 -13 0 31 21
56 32 38 4 -6 8 -15 8 -21 0 -5 -5 -3 -10 5 -7 12 -9 10 -8 -6 2 -22 13 -25
36 -11 7 5 26 9 42 9 16 1 27 5 24 9 -2 4 1 11 8 15 7 4 10 4 6 -1 -4 -4 -2
-15 5 -23 8 -11 8 -14 0 -9 -6 4 -15 2 -19 -4 -4 -8 -9 -7 -15 2 -6 10 -8 7
-6 -8 1 -20 3 -21 17 -8 9 8 19 13 22 10 6 -7 48 -15 48 -10 0 2 -7 11 -16 19
-8 9 -11 16 -5 16 5 0 12 -4 16 -10 3 -5 12 -7 20 -3 8 3 15 0 15 -7 0 -6 -4
-9 -8 -6 -5 3 -9 -1 -9 -9 0 -11 4 -12 13 -4 16 13 45 8 62 -11 8 -8 11 -9 7
-2 -4 7 -1 19 5 28 10 11 16 12 27 3 8 -7 12 -18 9 -25 -3 -7 -1 -16 5 -19 5
-4 9 -3 8 2 -8 48 20 61 56 25 14 -14 26 -22 24 -17 -4 24 2 27 16 9 15 -19
15 -19 8 1 -6 18 -5 19 12 5 10 -8 16 -10 12 -3 -4 6 -2 15 4 19 7 4 9 3 6 -3
-4 -6 1 -19 9 -29 13 -16 15 -16 10 -2 -7 22 12 34 27 18 9 -10 9 -11 -3 -5
-9 5 -12 4 -7 -1 5 -5 12 -9 15 -9 4 0 13 -4 20 -8 7 -5 12 -4 12 2 0 6 7 11
15 11 8 0 15 6 15 13 0 6 5 4 11 -6 5 -9 7 -22 4 -27 -3 -6 -4 -10 -1 -10 3 0
10 10 17 21 9 17 8 20 -3 14 -7 -5 -10 -4 -5 0 9 11 57 13 63 3 3 -4 0 -8 -6
-8 -6 0 -8 -5 -4 -11 5 -8 10 -6 16 5 7 13 13 14 31 4 20 -10 21 -10 8 6 -12
14 -12 16 4 10 14 -6 16 -4 10 6 -5 9 -4 11 4 6 6 -4 9 -12 6 -17 -4 -5 1 -9
10 -9 9 0 13 5 9 11 -4 7 -1 10 7 7 8 -3 13 -11 11 -17 -1 -6 3 -11 9 -11 6 0
9 8 7 18 -3 11 0 19 8 19 7 0 11 -3 9 -7 -2 -4 1 -15 8 -24 12 -17 14 -17 28
1 13 16 13 17 -3 4 -16 -12 -18 -11 -18 2 0 9 7 14 18 12 9 -2 21 -4 25 -4 5
-1 5 -7 1 -14 -6 -9 -4 -9 7 1 15 14 33 17 25 4 -3 -5 1 -9 9 -9 11 0 12 4 4
13 -7 8 -6 14 2 20 8 4 9 3 5 -4 -4 -7 -4 -13 1 -13 36 -6 54 -5 60 4 3 6 1 7
-5 3 -8 -5 -10 -1 -5 10 5 14 7 15 15 1 5 -10 15 -14 25 -10 10 4 14 2 9 -5
-3 -6 -1 -14 5 -18 7 -4 9 -3 5 4 -3 6 -2 13 4 17 5 3 10 0 10 -7 0 -10 2 -10
9 1 6 8 19 12 35 9 15 -3 29 -1 33 5 3 5 2 7 -3 4 -5 -3 -10 3 -10 14 0 18 2
18 12 5 6 -9 14 -13 17 -9 4 3 7 2 7 -3 0 -6 -5 -15 -11 -21 -7 -7 4 -5 24 4
20 9 34 21 31 27 -3 6 2 2 10 -8 11 -13 16 -15 16 -6 0 7 -8 23 -17 34 -18 20
-17 20 2 6 11 -8 22 -17 25 -20 3 -3 14 -12 24 -20 16 -12 18 -12 11 -1 -6 11
-4 13 9 8 11 -4 15 -3 10 4 -4 7 0 9 14 5 18 -6 20 -3 17 26 -5 45 -4 45 -14
29 -6 -9 -6 -22 0 -33 7 -14 6 -16 -6 -12 -9 4 -13 9 -11 12 3 3 -2 11 -12 19
-16 14 -16 14 1 9 12 -4 17 -2 14 6 -2 7 -10 12 -17 10 -18 -4 -50 8 -50 19 0
5 9 4 20 -3 17 -11 22 -10 30 2 7 11 10 11 10 2 0 -7 5 -10 12 -6 7 5 8 3 3
-6 -6 -9 -4 -11 4 -5 15 9 2 25 -25 30 -11 1 -18 8 -16 15 1 6 -2 9 -8 5 -8
-5 -7 -11 1 -21 14 -17 -2 -19 -20 -2 -10 11 -15 9 -27 -6 -8 -11 -14 -14 -14
-7 0 7 -5 9 -10 6 -8 -5 -7 -12 2 -23 12 -15 11 -16 -5 -3 -13 10 -15 17 -6
27 6 8 16 11 22 7 5 -3 7 -1 4 4 -11 17 -46 23 -40 7 3 -8 0 -14 -7 -14 -6 0
-8 -5 -4 -12 4 -7 -1 -5 -12 4 -10 9 -22 16 -26 15 -3 -1 -10 2 -15 6 -4 5 -3
8 2 7 6 -1 13 -1 18 0 4 1 10 3 15 4 4 1 17 7 28 14 12 6 24 9 26 6 3 -2 11 2
18 11 7 8 20 15 29 15 9 0 25 7 35 15 10 8 23 12 27 9 5 -3 9 0 9 6 0 7 9 9
23 5 15 -4 18 -3 8 3 -9 7 -10 12 -2 16 6 4 11 5 11 1 0 -3 10 0 23 7 12 7 26
11 30 10 5 -1 6 1 3 6 -2 4 4 14 16 21 16 10 19 10 14 -1 -4 -7 1 -3 10 9 9
13 23 23 31 23 8 0 11 5 7 12 -4 7 -3 8 4 4 6 -4 21 5 34 19 12 14 25 25 29
25 4 0 21 12 37 27 91 86 128 117 135 115 5 -1 6 2 2 8 -3 6 9 26 29 44 19 19
32 37 29 40 -4 3 -1 6 6 6 7 0 9 5 5 12 -5 8 -2 9 9 5 9 -3 16 -3 15 1 -2 12
20 60 32 67 6 4 15 18 21 32 5 13 13 21 19 18 5 -3 7 0 4 8 -3 8 2 21 10 30 8
8 12 17 9 21 -4 3 -1 6 5 6 7 0 12 7 12 15 0 8 4 15 10 15 5 0 7 7 4 15 -4 10
0 15 12 16 11 0 14 3 8 5 -8 3 -7 15 4 39 9 19 19 32 24 29 4 -3 5 2 2 11 -4
8 -1 22 6 30 7 8 9 15 5 15 -4 0 0 12 10 26 9 15 12 23 5 19 -7 -4 -5 6 4 24
9 17 14 31 10 31 -4 0 -1 6 5 13 6 8 8 17 4 20 -3 4 0 7 8 7 11 0 11 2 -1 10
-9 6 -10 10 -3 10 6 0 10 9 8 20 -2 11 3 27 11 35 10 10 11 15 4 15 -8 0 -9 7
-5 18 4 9 8 28 9 42 1 14 4 30 7 35 8 14 2 302 -7 355 -4 25 -7 60 -8 77 -1
18 -4 33 -8 33 -4 0 -12 25 -18 55 -6 31 -26 94 -45 140 -18 47 -30 85 -27 85
4 0 2 4 -3 8 -6 4 -22 30 -35 57 -14 28 -29 53 -35 57 -5 4 -6 8 -2 8 4 0 -1
10 -12 22 -11 11 -18 25 -15 30 3 4 1 8 -3 8 -5 0 -17 15 -28 33 -10 17 -21
34 -24 37 -3 3 -24 28 -46 55 -58 73 -181 191 -255 243 -36 26 -67 49 -70 52
-7 7 -59 37 -110 62 -25 13 -48 27 -51 31 -3 5 -10 9 -15 9 -5 0 -20 5 -34 11
-14 5 -29 11 -35 13 -5 1 -26 9 -46 17 -40 18 -180 57 -219 62 -14 2 -53 8
-86 13 -56 10 -307 15 -315 7z m-294 -2785 c3 -6 -1 -7 -9 -4 -18 7 -21 14 -7
14 6 0 13 -4 16 -10z m-102 -27 c-4 -11 -8 -13 -11 -5 -2 7 -9 9 -15 5 -7 -4
-6 1 2 10 16 20 33 13 24 -10z m-142 -7 c-10 -11 -8 -17 9 -29 22 -15 11 -34
-12 -22 -7 4 -4 -1 6 -9 11 -9 15 -16 8 -16 -6 0 -17 9 -25 20 -8 11 -17 17
-22 12 -12 -10 6 20 23 41 8 9 17 17 20 17 2 0 -1 -6 -7 -14z m173 -2 c3 -8 2
-12 -4 -9 -6 3 -10 10 -10 16 0 14 7 11 14 -7z m966 1 c0 -7 -30 -13 -34 -7
-3 4 4 9 15 9 10 1 19 0 19 -2z m118 -36 c-3 -8 -7 -3 -11 10 -4 17 -3 21 5
13 5 -5 8 -16 6 -23z m-1184 6 c-4 -8 -8 -15 -10 -15 -2 0 -4 7 -4 15 0 8 4
15 10 15 5 0 7 -7 4 -15z m24 -7 c-2 -8 5 -12 17 -10 16 2 17 1 5 -7 -16 -11
-44 5 -34 20 8 13 14 11 12 -3z m1080 -10 c-2 -7 2 -12 8 -11 6 1 11 -5 11
-13 0 -7 -3 -14 -6 -14 -10 0 -30 37 -24 44 10 9 13 7 11 -6z m106 -20 c-9
-14 -23 2 -17 18 4 12 8 13 14 3 4 -7 5 -17 3 -21z m-1213 -11 c-10 -9 -11 -8
-5 6 3 10 9 15 12 12 3 -3 0 -11 -7 -18z m1047 -2 c-3 -3 -9 2 -12 12 -6 14
-5 15 5 6 7 -7 10 -15 7 -18z m-818 -3 c0 -5 -7 -9 -15 -9 -8 0 -12 4 -9 9 3
4 9 8 15 8 5 0 9 -4 9 -8z m611 -10 c-7 -2 -18 1 -23 6 -8 8 -4 9 13 5 13 -4
18 -8 10 -11z m61 -4 c-7 -7 -12 -8 -12 -2 0 14 12 26 19 19 2 -3 -1 -11 -7
-17z m108 14 c0 -5 -7 -9 -15 -9 -8 0 -12 4 -9 9 3 4 9 8 15 8 5 0 9 -4 9 -8z
m-490 -22 c-20 -13 -30 -12 -30 1 0 5 4 8 9 4 5 -3 13 0 16 6 4 5 10 8 13 4 4
-3 0 -10 -8 -15z"/>
<path d="M910 201 c0 -5 7 -12 16 -15 14 -5 15 -4 4 9 -14 17 -20 19 -20 6z"/>
<path d="M1027 279 c7 -7 15 -10 18 -7 3 3 -2 9 -12 12 -14 6 -15 5 -6 -5z"/>
<path d="M2076 258 c3 -5 10 -6 15 -3 13 9 11 12 -6 12 -8 0 -12 -4 -9 -9z"/>
<path d="M2258 258 c7 -9 12 -20 11 -24 -1 -5 0 -12 1 -16 1 -5 4 -17 5 -28 1
-11 3 -24 4 -29 0 -5 8 -12 17 -15 14 -5 15 -4 4 9 -13 15 -2 21 16 8 5 -5 1
0 -10 10 -28 26 -14 31 17 6 24 -18 26 -18 20 -2 -6 15 -4 16 9 5 13 -10 19
-10 31 2 8 8 17 12 21 9 3 -4 6 -2 6 4 0 6 -12 11 -26 11 -26 0 -47 19 -38 34
3 4 0 8 -5 8 -6 0 -11 -4 -11 -10 0 -5 -6 -9 -12 -7 -7 1 -12 -4 -10 -10 2
-15 -7 -16 -28 -3 -10 6 -11 10 -2 10 19 0 14 14 -10 29 -21 13 -22 13 -10 -1z
m86 -45 c3 -7 13 -13 21 -13 9 0 13 -5 10 -10 -4 -6 -12 -7 -18 -3 -7 4 -18 8
-26 8 -18 0 -23 32 -5 32 7 0 15 -6 18 -14z"/>
<path d="M815 249 c-4 -6 -5 -12 -2 -15 2 -3 7 2 10 11 7 17 1 20 -8 4z"/>
<path d="M2360 236 c0 -2 7 -7 16 -10 8 -3 12 -2 9 4 -6 10 -25 14 -25 6z"/>
<path d="M686 222 c-3 -5 1 -9 9 -9 8 0 12 4 9 9 -3 4 -7 8 -9 8 -2 0 -6 -4
-9 -8z"/>
<path d="M735 220 c-3 -5 -1 -10 4 -10 6 0 11 5 11 10 0 6 -2 10 -4 10 -3 0
-8 -4 -11 -10z"/>
<path d="M797 219 c7 -7 15 -10 18 -7 3 3 -2 9 -12 12 -14 6 -15 5 -6 -5z"/>
<path d="M2439 193 c-12 -16 -12 -17 2 -6 9 7 20 9 24 5 5 -4 5 -1 1 6 -9 16
-11 15 -27 -5z"/>
<path d="M2490 199 c0 -5 5 -7 10 -4 6 3 10 8 10 11 0 2 -4 4 -10 4 -5 0 -10
-5 -10 -11z"/>
<path d="M788 183 c10 -4 10 -8 0 -21 -12 -15 -11 -16 4 -3 19 14 15 32 -5 30
-8 0 -8 -2 1 -6z"/>
<path d="M2410 166 c0 -8 4 -17 9 -20 5 -4 7 3 4 14 -6 23 -13 26 -13 6z"/>
<path d="M710 159 c0 -5 5 -7 10 -4 6 3 10 8 10 11 0 2 -4 4 -10 4 -5 0 -10
-5 -10 -11z"/>
<path d="M1246 131 c-4 -5 -2 -12 3 -15 5 -4 12 -2 15 3 4 5 2 12 -3 15 -5 4
-12 2 -15 -3z"/>
<path d="M1306 132 c-2 -4 4 -14 15 -20 19 -12 19 -11 9 8 -12 22 -16 24 -24
12z"/>
</g>
</svg>
